<?xml version="1.0" encoding="UTF-8" standalone="no"?>
<!-- Created with Inkscape (http://www.inkscape.org/) -->

<svg
   xmlns:dc="http://purl.org/dc/elements/1.1/"
   xmlns:cc="http://creativecommons.org/ns#"
   xmlns:rdf="http://www.w3.org/1999/02/22-rdf-syntax-ns#"
   xmlns:svg="http://www.w3.org/2000/svg"
   xmlns="http://www.w3.org/2000/svg"
   xmlns:sodipodi="http://sodipodi.sourceforge.net/DTD/sodipodi-0.dtd"
   xmlns:inkscape="http://www.inkscape.org/namespaces/inkscape"
   width="92.326958mm"
   height="82.247704mm"
   viewBox="0 0 327.14276 291.42887"
   id="svg2"
   version="1.1"
   inkscape:version="0.91 r13725"
   sodipodi:docname="logo.svg">
  <defs
     id="defs4" />
  <sodipodi:namedview
     id="base"
     pagecolor="#ffffff"
     bordercolor="#666666"
     borderopacity="1.0"
     inkscape:pageopacity="0.0"
     inkscape:pageshadow="2"
     inkscape:zoom="1.6504885"
     inkscape:cx="163.57139"
     inkscape:cy="145.71443"
     inkscape:document-units="px"
     inkscape:current-layer="layer1"
     showgrid="false"
     inkscape:window-width="1280"
     inkscape:window-height="683"
     inkscape:window-x="0"
     inkscape:window-y="1"
     inkscape:window-maximized="1"
     fit-margin-top="0"
     fit-margin-left="0"
     fit-margin-right="0"
     fit-margin-bottom="0" />
  <metadata
     id="metadata7">
    <rdf:RDF>
      <cc:Work
         rdf:about="">
        <dc:format>image/svg+xml</dc:format>
        <dc:type
           rdf:resource="http://purl.org/dc/dcmitype/StillImage" />
        <dc:title></dc:title>
      </cc:Work>
    </rdf:RDF>
  </metadata>
  <g
     inkscape:label="Layer 1"
     inkscape:groupmode="layer"
     id="layer1"
     transform="translate(-243.12871,-448.07646)">
    <path
       style="fill:#600dc6;fill-opacity:1"
       d="m 243.12871,448.07646 163.57137,0 163.5714,0 0,145.71442 0,145.71445 -163.5714,0 -163.57137,0 z m 116.28902,239.20349 0,-41.97983 17.43845,-22.05481 c 9.59115,-12.13021 22.71284,-28.71449 29.15931,-36.85401 6.44648,-8.1395 18.30781,-21.55004 19.8921,-23.58853 3.11334,-4.00599 -2.12246,-2.39734 -5.16523,-2.85362 -1.20801,-0.18115 -13.31182,14.04311 -33.16658,38.9769 l -31.2644,39.26219 -49.5629,0 -49.56285,0 0,45.5357 0,45.53577 51.11604,0 51.11606,0 z m -92.00887,-3.55601 0,-35.2902 40.28713,0 40.28719,0 -6.10332,7.72685 c -21.97694,27.82281 -35.59466,44.59638 -36.22194,44.61624 -0.39976,0.0126 -4.11336,-4.45938 -8.25243,-9.93792 -4.13902,-5.47851 -8.2305,-10.50484 -9.09213,-11.16963 -3.18027,-2.45375 -3.39854,-6.98665 -0.46238,-9.60228 1.52517,-1.35863 2.44104,-2.76609 2.03523,-3.12751 -1.86394,-1.66046 -18.64368,9.02248 -18.64368,11.86964 0,1.4425 29.01565,37.22045 30.57343,37.6988 0.60855,0.18687 10.71739,-11.85169 22.4641,-26.75225 11.7467,-14.9006 21.8704,-27.5787 22.4971,-28.17347 0.66926,-0.63521 1.13944,10.99112 1.13944,28.17523 l 0,29.25679 -40.25388,0 -40.25386,0 z m 147.94066,32.38993 c 11.23787,-4.18287 16.88362,-13.30081 16.88362,-27.26713 0,-18.7594 -10.3891,-29.02904 -29.36676,-29.02904 -18.97767,0 -29.36677,10.26964 -29.36677,29.02904 0,13.8112 5.57868,22.95914 16.59687,27.21563 5.84129,2.25656 19.25534,2.28393 25.25304,0.0515 z m -17.32785,-3.37016 c -10.4043,-4.02682 -14.57569,-25.98806 -7.53754,-39.68305 2.63148,-5.12044 4.29108,-6.84669 7.85909,-8.17476 3.9919,-1.48582 5.05441,-1.48582 9.04632,0 14.92208,5.55423 14.9536,42.35576 0.041,47.90636 -5.26641,1.96028 -4.20446,1.96576 -9.40891,-0.0486 z m 78.963,2.16428 c 0,-2.40067 -0.42732,-2.80063 -2.23632,-2.09321 -3.02177,1.18171 -7.96225,0.98473 -9.49251,-0.37848 -2.5249,-2.24923 -3.54574,-10.36562 -3.57551,-28.42775 l -0.0304,-18.49889 8.30637,0 c 7.45441,0 8.30635,-0.2335 8.30635,-2.27679 0,-2.04323 -0.85194,-2.27681 -8.30635,-2.27681 l -8.30637,0 0,-6.26116 c 0,-6.73054 -0.17083,-6.8568 -7.50767,-5.54964 -3.81732,0.68011 -3.99344,0.95626 -3.99344,6.26118 l 0,5.54962 -4.47265,0 c -3.62072,0 -4.47266,0.43372 -4.47266,2.27681 0,1.84315 0.85194,2.27679 4.47266,2.27679 l 4.47265,0 0,20.60365 c 0,28.21637 2.02326,31.6209 18.84904,31.71691 7.76791,0.0442 7.98689,-0.0358 7.98689,-2.92223 z m 57.44268,1.73508 c 5.68159,-1.0855 6.4524,-1.57603 6.4524,-4.10614 0,-2.27547 -0.4654,-2.71084 -2.23633,-2.09181 -5.40737,1.88991 -16.40476,2.78484 -20.91825,1.70215 -6.36885,-1.5277 -12.14362,-7.57035 -13.20424,-13.8167 -0.46042,-2.71166 -1.13957,-6.33903 -1.5092,-8.06083 l -0.6721,-3.13053 19.27006,0 19.27006,0 -0.007,-4.26902 c -0.0158,-9.4429 -5.02789,-17.77751 -12.86065,-21.3858 -1.98938,-0.91662 -6.83174,-1.66669 -10.76032,-1.66669 -16.91619,0 -27.4148,10.8861 -27.44688,28.45987 -0.0244,13.40766 6.55061,23.37118 18.48903,28.01715 4.71028,1.83304 17.47224,2.00318 26.13408,0.34835 z m -30.94609,-37.75728 c 1.5433,-10.73812 8.68129,-17.09937 16.29409,-14.52099 4.40694,1.49265 6.71179,5.31287 7.73069,12.81343 l 0.88918,6.54571 -12.80466,0 -12.80466,0 z M 330.15337,514.38791 c 0.07,-18.00086 0.52699,-34.00845 1.01541,-35.57243 0.62177,-1.99103 2.01569,-3.0176 4.64913,-3.42395 2.21708,-0.3421 3.93716,-1.39461 4.18991,-2.56378 0.38489,-1.7804 -0.89837,-1.98341 -12.53763,-1.98341 -11.63927,0 -12.92253,0.20301 -12.53764,1.98341 0.25189,1.1652 1.97049,2.22186 4.16591,2.5614 5.32048,0.82283 5.92911,4.14014 5.52357,30.10596 l -0.3466,22.19308 -23.39416,-28.42193 -23.39419,-28.42192 -9.60552,0 c -8.44398,0 -9.55361,0.23982 -9.17665,1.98341 0.25269,1.16917 1.97274,2.22168 4.18987,2.56378 2.6335,0.40635 4.02733,1.43292 4.64913,3.42395 1.15701,3.70494 1.15701,55.48676 0,59.1917 -0.6218,1.99103 -2.01563,3.0176 -4.64913,3.42395 -2.21713,0.34211 -3.93718,1.3946 -4.18987,2.56378 -0.38493,1.78041 0.8983,1.98341 12.53762,1.98341 11.65857,0 12.92364,-0.20094 12.54231,-1.99219 -0.25822,-1.21286 -1.82052,-2.13533 -3.99376,-2.3581 -2.43872,-0.24999 -3.96107,-1.28312 -4.80526,-3.26106 -0.70027,-1.64079 -1.0868,-13.72178 -0.89208,-27.884 l 0.34353,-24.98885 25.33326,30.8113 c 17.96119,21.84507 26.04947,30.8113 27.79436,30.8113 2.36951,0 2.46584,-1.21806 2.58848,-32.72881 z m 60.91602,30.96689 c 11.23787,-4.18288 16.88362,-13.3008 16.88362,-27.26711 0,-18.75943 -10.38909,-29.02906 -29.36676,-29.02906 -18.97767,0 -29.36677,10.26963 -29.36677,29.02906 0,13.81117 5.57867,22.95911 16.59687,27.2156 5.84129,2.25656 19.25534,2.28393 25.25304,0.0515 z m -17.32785,-3.37015 c -10.40429,-4.02683 -14.5757,-25.98805 -7.53755,-39.68306 2.63148,-5.12043 4.2911,-6.84669 7.8591,-8.17475 3.9919,-1.48584 5.05441,-1.48584 9.04631,0 14.92208,5.5542 14.95361,42.35574 0.041,47.9064 -5.26643,1.96023 -4.20447,1.96571 -9.40891,-0.0486 z m 78.963,2.16429 c 0,-2.40069 -0.42732,-2.80068 -2.23633,-2.09321 -3.02176,1.18172 -7.96223,0.98473 -9.4925,-0.37849 -2.5249,-2.24924 -3.54573,-10.36567 -3.5755,-28.42774 l -0.0305,-18.4989 8.30636,0 c 7.45442,0 8.30636,-0.2335 8.30636,-2.27678 0,-2.04327 -0.85194,-2.27679 -8.30636,-2.27679 l -8.30636,0 0,-6.26116 c 0,-6.73057 -0.17084,-6.85685 -7.50767,-5.54967 -3.81732,0.68012 -3.99345,0.95624 -3.99345,6.26116 l 0,5.54967 -4.47265,0 c -3.62071,0 -4.47265,0.43368 -4.47265,2.27679 0,1.84311 0.85194,2.27678 4.47265,2.27678 l 4.47265,0 0,20.60364 c 0,28.21638 2.02327,31.62089 18.84905,31.7169 7.76791,0.0443 7.98689,-0.0358 7.98689,-2.9222 z m 57.44268,1.73506 c 5.68158,-1.08547 6.4524,-1.576 6.4524,-4.10618 0,-2.27545 -0.4654,-2.71079 -2.23633,-2.09181 -5.40737,1.88998 -16.40476,2.78487 -20.91825,1.7022 -6.36886,-1.52773 -12.14361,-7.57037 -13.20424,-13.81672 -0.46042,-2.71163 -1.13956,-6.33899 -1.50922,-8.06081 l -0.67209,-3.13059 19.27006,0 19.27007,0 -0.007,-4.26898 c -0.0152,-9.44288 -5.02737,-17.77749 -12.86012,-21.38577 -1.98991,-0.91668 -6.83229,-1.66671 -10.76085,-1.66671 -16.9162,0 -27.41481,10.88608 -27.44689,28.45986 -0.0244,13.40771 6.55061,23.37117 18.48904,28.01718 4.71027,1.83307 17.47223,2.00315 26.13407,0.34833 z m -30.94609,-37.75726 c 1.54329,-10.73814 8.68129,-17.09937 16.2941,-14.52097 4.40693,1.4926 6.71178,5.31283 7.73068,12.81337 l 0.88919,6.54577 -12.80467,0 -12.80465,0 z"
       id="path3347"
       inkscape:connector-curvature="0"
       sodipodi:nodetypes="ccccccccccsssssccccccccccccscscccscscscccccsssscccssssccccsscssscssscssscsccccscssscccscsssccscscccssssssssscccscsssscscscscssscsssscccssssccccsscssscssscssscsscccsssssccccssssccssscccs" />
  </g>
</svg>
