<?xml version="1.0" encoding="UTF-8" standalone="no"?>
<!-- Created with Inkscape (http://www.inkscape.org/) -->

<svg
   xmlns:dc="http://purl.org/dc/elements/1.1/"
   xmlns:cc="http://creativecommons.org/ns#"
   xmlns:rdf="http://www.w3.org/1999/02/22-rdf-syntax-ns#"
   xmlns:svg="http://www.w3.org/2000/svg"
   xmlns="http://www.w3.org/2000/svg"
   xmlns:sodipodi="http://sodipodi.sourceforge.net/DTD/sodipodi-0.dtd"
   xmlns:inkscape="http://www.inkscape.org/namespaces/inkscape"
   width="210mm"
   height="297mm"
   viewBox="0 0 744.09448819 1052.3622047"
   id="svg2"
   version="1.1"
   inkscape:version="0.91 r13725"
   sodipodi:docname="Note and Vote.svg">
  <defs
     id="defs4" />
  <sodipodi:namedview
     id="base"
     pagecolor="#ffffff"
     bordercolor="#666666"
     borderopacity="1.0"
     inkscape:pageopacity="0.0"
     inkscape:pageshadow="2"
     inkscape:zoom="0.35"
     inkscape:cx="375"
     inkscape:cy="136.08653"
     inkscape:document-units="px"
     inkscape:current-layer="layer1"
     showgrid="false"
     inkscape:window-width="1280"
     inkscape:window-height="650"
     inkscape:window-x="-8"
     inkscape:window-y="-8"
     inkscape:window-maximized="1" />
  <metadata
     id="metadata7">
    <rdf:RDF>
      <cc:Work
         rdf:about="">
        <dc:format>image/svg+xml</dc:format>
        <dc:type
           rdf:resource="http://purl.org/dc/dcmitype/StillImage" />
        <dc:title></dc:title>
      </cc:Work>
    </rdf:RDF>
  </metadata>
  <g
     inkscape:label="Layer 1"
     inkscape:groupmode="layer"
     id="layer1">
    <path
       style="fill:#600dc6;fill-opacity:1"
       d="m -1131.157,400.9336 494.28562,0 494.28572,0 0,487.14295 0,487.14305 -494.28572,0 -494.28562,0 z m 351.40617,799.6895 0,-140.3442 52.69611,-73.73222 c 28.98287,-40.55292 68.63446,-95.99639 88.11463,-123.20792 19.48021,-27.21146 55.32319,-72.04468 60.11064,-78.85962 9.40799,-13.39258 -6.41374,-8.01465 -15.60848,-9.54007 -3.65039,-0.60561 -40.22614,46.948 -100.22391,130.30505 l -94.47586,131.25878 -149.77088,0 -149.77072,0 0,152.232 0,152.2322 154.46419,0 154.46428,0 z m -278.03557,-11.8882 0,-117.9799 121.74104,0 121.74121,0 -18.44321,25.8319 c -66.41068,93.0154 -107.56117,149.0917 -109.45671,149.1581 -1.20802,0.042 -12.42989,-14.9083 -24.93746,-33.2238 -12.50748,-18.3154 -24.87124,-35.1191 -27.47492,-37.3416 -9.61025,-8.2032 -10.26985,-23.3573 -1.39724,-32.1017 4.60879,-4.5421 7.37642,-9.2474 6.15013,-10.4557 -5.63253,-5.5511 -56.33814,30.1634 -56.33814,39.6818 0,4.8225 87.68051,124.433 92.38788,126.0322 1.83893,0.6247 32.38615,-39.6218 67.88277,-89.4364 35.49661,-49.8147 66.08875,-92.1993 67.98252,-94.1877 2.02241,-2.1236 3.44322,36.7448 3.44322,94.1936 l 0,97.8094 -121.64059,0 -121.6405,0 z m 447.05221,108.2839 c 33.95897,-13.9839 51.0195,-44.4664 51.0195,-91.1577 0,-62.7152 -31.39414,-97.048 -88.74149,-97.048 -57.34737,0 -88.7415,34.3328 -88.7415,97.048 0,46.1727 16.85783,76.7555 50.15298,90.9855 17.65141,7.544 58.18644,7.6355 76.31051,0.1723 z m -52.3619,-11.2669 c -31.44008,-13.4622 -44.04535,-86.8816 -22.77722,-132.6658 7.95191,-17.1183 12.96696,-22.8894 23.74889,-27.3293 12.06288,-4.9673 15.27358,-4.9673 27.33646,0 45.09205,18.5685 45.18731,141.601 0.12389,160.1574 -15.91424,6.5535 -12.70519,6.5718 -28.43216,-0.1625 z m 238.61312,7.2355 c 0,-8.0258 -1.29129,-9.3629 -6.75781,-6.9979 -9.13127,3.9506 -24.06057,3.2921 -28.68479,-1.2653 -7.6298,-7.5195 -10.71461,-34.6537 -10.80457,-95.0378 l -0.092,-61.8443 25.10047,0 c 22.52601,0 25.10044,-0.7806 25.10044,-7.6116 0,-6.8308 -2.57443,-7.6117 -25.10044,-7.6117 l -25.10047,0 0,-20.9319 c 0,-22.5011 -0.51623,-22.9232 -22.68693,-18.5532 -11.53529,2.2737 -12.06752,3.1969 -12.06752,20.932 l 0,18.5531 -13.51562,0 c -10.94121,0 -13.51562,1.45 -13.51562,7.6117 0,6.1619 2.57441,7.6116 13.51562,7.6116 l 13.51562,0 0,68.8808 c 0,94.3311 6.11398,105.7129 56.95871,106.0339 23.47332,0.1478 24.13505,-0.1197 24.13505,-9.7694 z m 173.58227,5.8006 c 17.16882,-3.629 19.49808,-5.2689 19.49808,-13.7274 0,-7.6072 -1.40636,-9.0627 -6.75781,-6.9932 -16.34017,6.3182 -49.57245,9.3101 -63.2115,5.6905 -19.2456,-5.1073 -36.69599,-25.3087 -39.901,-46.1911 -1.39135,-9.0654 -3.4436,-21.1922 -4.56059,-26.9484 l -2.03095,-10.4658 58.23094,0 58.23091,0 -0.0215,-14.2719 c -0.0476,-31.5689 -15.19347,-59.4326 -38.86274,-71.4956 -6.01158,-3.0644 -20.64442,-5.572 -32.51592,-5.572 -51.11794,0 -82.84299,36.3937 -82.93994,95.1452 -0.0738,44.8236 19.79486,78.133 55.87079,93.6651 14.2337,6.1281 52.79822,6.6969 78.97287,1.1646 z m -93.51397,-126.2277 c 4.6636,-35.899 26.23343,-57.1655 49.23808,-48.5456 13.31702,4.9901 20.28191,17.7616 23.36084,42.837 l 2.68697,21.8832 -38.69358,0 -38.69356,0 z M -868.18288,622.6217 c 0.21161,-60.17928 1.59249,-113.69483 3.0684,-118.92342 1.8789,-6.65626 6.09108,-10.08824 14.04893,-11.44672 6.69965,-1.1437 11.89743,-4.66237 12.66119,-8.57105 1.16309,-5.95214 -2.71473,-6.63082 -37.88664,-6.63082 -35.17195,0 -39.04976,0.67868 -37.88669,6.63082 0.76118,3.89538 5.95449,7.42795 12.58869,8.56307 16.07763,2.75086 17.91682,13.84106 16.69135,100.64828 l -1.04739,74.19447 -70.69329,-95.01832 -70.69337,-95.01832 -29.0263,0 c -25.5163,0 -28.8694,0.80175 -27.7303,6.63082 0.7636,3.90868 5.9613,7.42735 12.6611,8.57105 7.958,1.35848 12.1699,4.79046 14.0489,11.44672 3.4963,12.38612 3.4963,185.49971 0,197.88585 -1.879,6.65625 -6.0909,10.08825 -14.0489,11.44672 -6.6998,1.14371 -11.8975,4.66234 -12.6611,8.57104 -1.1632,5.95216 2.7145,6.63084 37.8866,6.63084 35.2303,0 39.0531,-0.67177 37.9008,-6.66016 -0.7803,-4.05477 -5.5013,-7.13871 -12.0685,-7.88347 -7.3694,-0.83574 -11.9697,-4.28966 -14.5207,-10.90215 -2.1161,-5.48541 -3.2841,-45.87375 -2.6957,-93.21997 l 1.0381,-83.54112 76.55289,103.00633 c 54.27575,73.03105 78.71719,103.00633 83.98999,103.00633 7.16025,0 7.45135,-4.0721 7.82194,-109.41682 z m 184.07815,103.5265 c 33.95898,-13.98391 51.0195,-44.46638 51.0195,-91.15763 0,-62.71528 -31.39413,-97.04805 -88.7415,-97.04805 -57.34737,0 -88.74153,34.33277 -88.74153,97.04805 0,46.17262 16.85784,76.7554 50.15301,90.98541 17.65142,7.544 58.18645,7.6355 76.31052,0.17229 z m -52.3619,-11.26687 c -31.44006,-13.46221 -44.04535,-86.88154 -22.77723,-132.66583 7.9519,-17.11828 12.96698,-22.88939 23.7489,-27.32927 12.06288,-4.96737 15.27359,-4.96737 27.33646,0 45.09205,18.56842 45.18733,141.60095 0.1239,160.15755 -15.91426,6.55331 -12.7052,6.57163 -28.43216,-0.1626 z m 238.61312,7.2355 c 0,-8.02583 -1.29129,-9.36303 -6.75782,-6.99786 -9.13127,3.95063 -24.06055,3.29207 -28.68478,-1.26533 -7.6298,-7.51953 -10.71459,-34.65386 -10.80455,-95.03778 l -0.0921,-61.8443 25.10045,0 c 22.52601,0 25.10045,-0.78067 25.10045,-7.61161 0,-6.83093 -2.57444,-7.61162 -25.10045,-7.61162 l -25.10045,0 0,-20.9319 c 0,-22.50121 -0.51626,-22.92337 -22.68695,-18.5533 -11.53529,2.27373 -12.06753,3.19687 -12.06753,20.93192 l 0,18.55328 -13.51561,0 c -10.94121,0 -13.51563,1.44985 -13.51563,7.61162 0,6.16178 2.57442,7.61161 13.51563,7.61161 l 13.51561,0 0,68.88073 c 0,94.33115 6.11399,105.71289 56.95872,106.03386 23.47333,0.14829 24.13504,-0.11962 24.13504,-9.76932 z m 173.58228,5.80055 c 17.1688,-3.62887 19.49809,-5.26878 19.49809,-13.72752 0,-7.60712 -1.40636,-9.0625 -6.75781,-6.99317 -16.34019,6.31844 -49.57248,9.31019 -63.21151,5.69065 -19.24564,-5.1074 -36.69599,-25.30877 -39.90101,-46.19115 -1.39135,-9.06532 -3.44359,-21.19211 -4.56062,-26.94838 l -2.03094,-10.46596 58.23092,0 58.23097,0 -0.0215,-14.27179 c -0.0461,-31.56881 -15.19189,-59.43255 -38.86113,-71.49553 -6.01319,-3.06458 -20.64607,-5.57201 -32.51753,-5.57201 -51.11796,0 -82.84301,36.39364 -82.93995,95.14513 -0.0738,44.82379 19.79484,78.13299 55.8708,93.66523 14.23368,6.12818 52.79819,6.6968 78.97285,1.1645 z m -93.51398,-126.22762 c 4.66358,-35.89903 26.23344,-57.16549 49.23809,-48.54554 13.31701,4.98996 20.2819,17.7615 23.36083,42.83681 l 2.68698,21.88339 -38.69358,0 -38.69356,0 z"
       id="path3347"
       inkscape:connector-curvature="0"
       sodipodi:nodetypes="ccccccccccsssssccccccccccccscscccscscscccccsssscccssssccccsscssscssscssscsccccscssscccscsssccscscccssssssssscccscsssscscscscssscsssscccssssccccsscssscssscssscsscccsssssccccssssccssscccs" />
    <flowRoot
       xml:space="preserve"
       id="flowRoot3349"
       style="fill:black;stroke:none;stroke-opacity:1;stroke-width:1px;stroke-linejoin:miter;stroke-linecap:butt;fill-opacity:1;font-family:sans-serif;font-style:normal;font-weight:normal;font-size:40px;line-height:125%;letter-spacing:0px;word-spacing:0px"><flowRegion
         id="flowRegion3351"><rect
           id="rect3353"
           width="331.42856"
           height="108.57143"
           x="-1111.4286"
           y="826.64795" /></flowRegion><flowPara
         id="flowPara3355"></flowPara></flowRoot>    <flowRoot
       xml:space="preserve"
       id="flowRoot3357"
       style="font-style:normal;font-variant:normal;font-weight:normal;font-stretch:normal;font-size:180px;line-height:112.00000048%;font-family:'Century Gothic';-inkscape-font-specification:'Century Gothic';letter-spacing:-7.94000292px;word-spacing:-7.46000099px;fill:#ffffff;fill-opacity:1;stroke:none;stroke-width:1px;stroke-linecap:butt;stroke-linejoin:miter;stroke-opacity:1"
       transform="matrix(0.81049254,0,0,0.85185185,-206.67602,156.1162)"><flowRegion
         id="flowRegion3359"><rect
           id="rect3361"
           width="502.85617"
           height="425.71417"
           x="-1100"
           y="712.36224"
           style="font-style:normal;font-variant:normal;font-weight:normal;font-stretch:normal;font-size:180px;line-height:112.00000048%;font-family:'Century Gothic';-inkscape-font-specification:'Century Gothic';letter-spacing:-7.94000292px;word-spacing:-7.46000099px;fill:#ffffff" /></flowRegion><flowPara
         id="flowPara3363">and</flowPara></flowRoot>    <flowRoot
       xml:space="preserve"
       id="flowRoot3365"
       style="fill:black;stroke:none;stroke-opacity:1;stroke-width:1px;stroke-linejoin:miter;stroke-linecap:butt;fill-opacity:1;font-family:sans-serif;font-style:normal;font-weight:normal;font-size:40px;line-height:125%;letter-spacing:0px;word-spacing:0px"><flowRegion
         id="flowRegion3367"><rect
           id="rect3369"
           width="17.142857"
           height="65.714287"
           x="-1042.8572"
           y="749.50507" /></flowRegion><flowPara
         id="flowPara3371"></flowPara></flowRoot>    <flowRoot
       xml:space="preserve"
       id="flowRoot3373"
       style="fill:black;stroke:none;stroke-opacity:1;stroke-width:1px;stroke-linejoin:miter;stroke-linecap:butt;fill-opacity:1;font-family:sans-serif;font-style:normal;font-weight:normal;font-size:40px;line-height:125%;letter-spacing:0px;word-spacing:0px"><flowRegion
         id="flowRegion3375"><rect
           id="rect3377"
           width="20"
           height="68.571426"
           x="-1097.1428"
           y="740.93365" /></flowRegion><flowPara
         id="flowPara3379"></flowPara></flowRoot>  </g>
</svg>
